<svg xmlns="http://www.w3.org/2000/svg"  viewBox="0 0 48 48" width="48px" height="48px"><path d="M 25.880859 0.578125 L 20.824219 5.6347656 L 17.566406 3.9980469 L 12.646484 13.8125 L 2.421875 24.037109 L 4.4355469 26.052734 L 2.6015625 28.521484 L 3.9980469 29.580078 L 0.99804688 33.990234 L 2.1308594 34.785156 L 0.99804688 37.044922 L 16.199219 44.664062 L 19.375 46.894531 C 19.437771 46.938768 19.509538 46.973866 19.572266 47.015625 C 13.757909 47.061148 3.9980469 47.251594 3.9980469 47.496094 C 3.9980469 47.771021 16.702944 47.987377 21.78125 47.992188 C 21.823119 47.993461 21.864919 47.995653 21.90625 47.994141 C 21.929806 47.99415 21.974843 47.994141 21.998047 47.994141 C 28.334047 47.994141 44.998047 47.774094 44.998047 47.496094 C 44.998047 47.234113 30.565695 47.0305 23.527344 47.005859 L 26.087891 44.449219 L 26.089844 44.445312 L 46.498047 24.037109 C 47.434047 23.101109 46.980109 21.675422 45.787109 20.482422 L 25.880859 0.578125 z M 25.880859 1.9921875 L 45.078125 21.189453 L 22.976562 43.292969 C 22.776562 43.013969 22.553219 42.753437 22.324219 42.523438 L 3.8378906 24.037109 L 25.880859 1.9921875 z M 25.880859 4.8164062 L 20.931641 9.765625 L 29.417969 18.25 L 34.365234 13.302734 L 25.880859 4.8164062 z M 18.986328 12.126953 C 18.730328 12.126953 18.472844 12.226375 18.277344 12.421875 L 7.4960938 23.201172 C 7.1050938 23.592172 7.1050937 24.226187 7.4960938 24.617188 C 7.8860937 25.007188 8.5201563 25.007188 8.9101562 24.617188 L 19.693359 13.835938 C 20.084359 13.444937 20.084359 12.812875 19.693359 12.421875 C 19.497859 12.226375 19.242328 12.126953 18.986328 12.126953 z M 35.771484 14.931641 C 35.643484 14.931641 35.515969 14.980625 35.417969 15.078125 L 31.185547 19.310547 C 30.990547 19.506547 30.990547 19.823531 31.185547 20.019531 C 31.381547 20.214531 31.696578 20.214531 31.892578 20.019531 L 36.125 15.785156 C 36.32 15.589156 36.32 15.274125 36.125 15.078125 C 36.027 14.980625 35.899484 14.931641 35.771484 14.931641 z M 21.882812 15.136719 C 21.690812 15.136719 21.497563 15.208969 21.351562 15.355469 L 10.277344 26.431641 C 9.9843438 26.723641 9.9843438 27.198234 10.277344 27.490234 C 10.569344 27.784234 11.045891 27.784234 11.337891 27.490234 L 22.412109 16.416016 C 22.705109 16.124016 22.705109 15.647469 22.412109 15.355469 C 22.266109 15.208969 22.074813 15.136719 21.882812 15.136719 z M 37.900391 17.042969 C 37.772391 17.042969 37.644875 17.091953 37.546875 17.189453 L 33.314453 21.421875 C 33.119453 21.617875 33.119453 21.934859 33.314453 22.130859 C 33.510453 22.325859 33.827438 22.325859 34.023438 22.130859 L 38.255859 17.898438 C 38.450859 17.702438 38.450859 17.385453 38.255859 17.189453 C 38.157859 17.091953 38.028391 17.042969 37.900391 17.042969 z M 24.457031 17.761719 C 24.329031 17.761719 24.201516 17.80875 24.103516 17.90625 L 19.869141 22.138672 C 19.674141 22.334672 19.674141 22.651656 19.869141 22.847656 C 20.065141 23.042656 20.382125 23.042656 20.578125 22.847656 L 24.810547 18.615234 C 25.005547 18.419234 25.005547 18.10225 24.810547 17.90625 C 24.712547 17.80875 24.585031 17.761719 24.457031 17.761719 z M 40.011719 19.175781 C 39.883719 19.175781 39.756203 19.224766 39.658203 19.322266 L 35.425781 23.554688 C 35.230781 23.750687 35.230781 24.065719 35.425781 24.261719 C 35.621781 24.456719 35.938766 24.456719 36.134766 24.261719 L 40.365234 20.029297 C 40.560234 19.833297 40.560234 19.518266 40.365234 19.322266 C 40.267234 19.224766 40.139719 19.175781 40.011719 19.175781 z M 26.587891 19.873047 C 26.459891 19.873047 26.332375 19.922031 26.234375 20.019531 L 22.001953 24.251953 C 21.806953 24.447953 21.806953 24.762984 22.001953 24.958984 C 22.197953 25.153984 22.512984 25.153984 22.708984 24.958984 L 26.941406 20.726562 C 27.136406 20.530563 27.136406 20.215531 26.941406 20.019531 C 26.843406 19.922031 26.715891 19.873047 26.587891 19.873047 z M 42.144531 21.287109 C 42.016531 21.287109 41.887062 21.336094 41.789062 21.433594 L 37.558594 25.664062 C 37.363594 25.860062 37.363594 26.177047 37.558594 26.373047 C 37.754594 26.567047 38.069625 26.567047 38.265625 26.373047 L 42.498047 22.140625 C 42.693047 21.944625 42.693047 21.629594 42.498047 21.433594 C 42.400047 21.336094 42.272531 21.287109 42.144531 21.287109 z M 28.699219 22.003906 C 28.571219 22.003906 28.443703 22.052891 28.345703 22.150391 L 24.113281 26.382812 C 23.918281 26.578813 23.918281 26.893844 24.113281 27.089844 C 24.309281 27.284844 24.624313 27.284844 24.820312 27.089844 L 29.054688 22.857422 C 29.249688 22.661422 29.249688 22.346391 29.054688 22.150391 C 28.956687 22.052891 28.827219 22.003906 28.699219 22.003906 z M 30.830078 24.115234 C 30.702078 24.115234 30.574562 24.164219 30.476562 24.261719 L 26.242188 28.494141 C 26.047187 28.690141 26.047187 29.005172 26.242188 29.201172 C 26.438187 29.396172 26.755172 29.396172 26.951172 29.201172 L 31.183594 24.970703 C 31.378594 24.774703 31.378594 24.457719 31.183594 24.261719 C 31.085594 24.164219 30.958078 24.115234 30.830078 24.115234 z M 17.384766 24.832031 C 17.256766 24.832031 17.12925 24.881016 17.03125 24.978516 L 12.798828 29.210938 C 12.603828 29.406937 12.603828 29.721969 12.798828 29.917969 C 12.994828 30.112969 13.311813 30.112969 13.507812 29.917969 L 17.738281 25.685547 C 17.933281 25.489547 17.933281 25.174516 17.738281 24.978516 C 17.640281 24.881016 17.512766 24.832031 17.384766 24.832031 z M 32.941406 26.246094 C 32.813406 26.246094 32.685891 26.295078 32.587891 26.392578 L 28.355469 30.626953 C 28.160469 30.822953 28.160469 31.137984 28.355469 31.333984 C 28.551469 31.528984 28.8665 31.528984 29.0625 31.333984 L 33.294922 27.101562 C 33.489922 26.905563 33.489922 26.588578 33.294922 26.392578 C 33.196922 26.295078 33.069406 26.246094 32.941406 26.246094 z M 19.515625 26.943359 C 19.387625 26.943359 19.260109 26.992344 19.162109 27.089844 L 14.929688 31.322266 C 14.734687 31.518266 14.734687 31.833297 14.929688 32.029297 C 15.125687 32.224297 15.442672 32.224297 15.638672 32.029297 L 19.869141 27.798828 C 20.064141 27.602828 20.064141 27.285844 19.869141 27.089844 C 19.771141 26.992344 19.643625 26.943359 19.515625 26.943359 z M 4.7402344 27.341797 L 11.576172 33.193359 L 15.117188 36.734375 L 4.0097656 28.326172 L 4.7402344 27.341797 z M 35.072266 28.359375 C 34.944266 28.359375 34.81675 28.408359 34.71875 28.505859 L 30.486328 32.736328 C 30.291328 32.932328 30.291328 33.249313 30.486328 33.445312 C 30.682328 33.639313 30.997359 33.639313 31.193359 33.445312 L 35.427734 29.212891 C 35.622734 29.016891 35.622734 28.701859 35.427734 28.505859 C 35.329734 28.408359 35.200266 28.359375 35.072266 28.359375 z M 21.628906 29.074219 C 21.500906 29.074219 21.371437 29.123203 21.273438 29.220703 L 17.042969 33.453125 C 16.847969 33.649125 16.847969 33.964156 17.042969 34.160156 C 17.238969 34.354156 17.554 34.354156 17.75 34.160156 L 21.982422 29.929688 C 22.177422 29.733688 22.177422 29.416703 21.982422 29.220703 C 21.884422 29.123203 21.756906 29.074219 21.628906 29.074219 z M 4.2949219 30.931641 C 10.778922 35.466641 21.872312 42.860922 22.820312 45.419922 C 22.864312 45.925922 22.714172 46.397156 22.326172 46.785156 C 22.098172 47.013156 21.718953 47.134797 21.001953 46.716797 C 20.586953 46.481797 20.272125 46.295266 19.953125 46.072266 L 2.3886719 33.736328 L 4.2949219 30.931641 z M 23.759766 31.1875 C 23.631766 31.1875 23.502297 31.234531 23.404297 31.332031 L 19.173828 35.564453 C 18.978828 35.760453 18.978828 36.077438 19.173828 36.273438 C 19.369828 36.467437 19.684859 36.467437 19.880859 36.273438 L 24.113281 32.041016 C 24.308281 31.845016 24.308281 31.528031 24.113281 31.332031 C 24.015281 31.234531 23.887766 31.1875 23.759766 31.1875 z M 25.869141 33.318359 C 25.741141 33.318359 25.613625 33.367344 25.515625 33.464844 L 21.283203 37.697266 C 21.088203 37.893266 21.088203 38.208297 21.283203 38.404297 C 21.479203 38.598297 21.794234 38.598297 21.990234 38.404297 L 26.224609 34.173828 C 26.419609 33.977828 26.419609 33.660844 26.224609 33.464844 C 26.126609 33.367344 25.997141 33.318359 25.869141 33.318359 z M 28.001953 35.429688 C 27.873953 35.429688 27.744484 35.476719 27.646484 35.574219 L 23.414062 39.806641 C 23.219063 40.002641 23.219062 40.319625 23.414062 40.515625 C 23.610063 40.710625 23.927047 40.710625 24.123047 40.515625 L 28.355469 36.283203 C 28.550469 36.087203 28.550469 35.770219 28.355469 35.574219 C 28.257469 35.476719 28.129953 35.429688 28.001953 35.429688 z"/></svg>