<svg xmlns="http://www.w3.org/2000/svg"  viewBox="0 0 100 100" width="100px" height="100px"><path d="M 35.650391 5.4433594 C 21.211475 5.515519 11.140015 17.940815 10.404297 31.927734 C 9.6379153 46.483524 22.343731 57.863954 36.859375 58.589844 C 40.918543 58.7926 44.651755 58.009927 47.964844 56.494141 L 51.580078 61.167969 A 2.0002 2.0002 0 0 0 51.902344 62.105469 L 71.701172 92.099609 A 2.0002 2.0002 0 0 0 73.929688 92.916016 C 79.863388 91.183146 84.595274 87.406643 86.982422 81.326172 A 2.0002 2.0002 0 0 0 86.535156 79.181641 L 62.330078 54.949219 L 57.736328 48.441406 C 61.138905 43.839013 63.201962 38.10258 63.515625 32.136719 C 64.292071 17.396223 51.55612 6.1994951 37.060547 5.4746094 C 36.585851 5.4508645 36.116162 5.4410316 35.650391 5.4433594 z M 35.664062 9.4433594 C 36.058628 9.4416649 36.456945 9.450573 36.859375 9.4707031 C 42.457831 9.7506671 47.68686 11.790328 51.712891 15.050781 L 50.326172 16.552734 A 1.0001 1.0001 0 1 0 51.796875 17.908203 L 53.212891 16.371094 C 53.70833 16.848767 54.180661 17.345448 54.626953 17.863281 L 51.160156 20.203125 A 1.0002642 1.0002642 0 1 0 52.279297 21.861328 L 55.859375 19.443359 C 56.517275 20.369096 57.100672 21.344097 57.595703 22.365234 L 54.757812 23.349609 A 1.0006407 1.0006407 0 1 0 55.414062 25.240234 L 58.376953 24.210938 C 59.247714 26.600271 59.665481 29.194027 59.521484 31.927734 C 59.392031 34.389933 58.925421 36.786602 58.177734 39.050781 L 55.367188 38.052734 A 1.0001 1.0001 0 0 0 54.974609 37.990234 A 1.0001 1.0001 0 0 0 54.699219 39.9375 L 57.486328 40.927734 C 55.111834 46.623546 50.81201 51.225197 45.193359 53.347656 L 44.791016 50.322266 A 1.0001 1.0001 0 0 0 43.75 49.441406 A 1.0001 1.0001 0 0 0 42.808594 50.585938 L 43.257812 53.962891 C 41.963202 54.302592 40.609396 54.518288 39.201172 54.589844 L 39.5625 52.193359 A 1.0001 1.0001 0 0 0 38.509766 51.03125 A 1.0001 1.0001 0 0 0 37.583984 51.894531 L 37.177734 54.595703 C 37.138354 54.593949 37.100001 54.595721 37.060547 54.59375 C 36.2025 54.550841 35.353629 54.461558 34.515625 54.335938 L 35.019531 52.601562 A 1.0001 1.0001 0 0 0 34.029297 51.310547 A 1.0001 1.0001 0 0 0 33.097656 52.044922 L 32.542969 53.962891 C 31.765762 53.783952 30.999363 53.572998 30.25 53.326172 L 31.197266 51.572266 A 1.0001 1.0001 0 0 0 30.304688 50.085938 A 1.0001 1.0001 0 0 0 29.4375 50.623047 L 28.361328 52.617188 C 27.27324 52.161538 26.23789 51.617892 25.238281 51.025391 L 27.042969 48.066406 A 1.0001 1.0001 0 0 0 26.228516 46.533203 A 1.0001 1.0001 0 0 0 25.335938 47.023438 L 23.558594 49.9375 C 22.772327 49.380815 22.012279 48.7935 21.306641 48.154297 L 22.705078 46.21875 A 1.0001 1.0001 0 0 0 21.912109 44.623047 A 1.0001 1.0001 0 0 0 21.083984 45.048828 L 19.867188 46.732422 C 17.796644 44.495488 16.214071 41.875454 15.291016 38.996094 L 17.96875 36.927734 A 1.0001 1.0001 0 0 0 17.367188 35.128906 A 1.0001 1.0001 0 0 0 16.746094 35.345703 L 14.744141 36.890625 C 14.541509 35.873209 14.422088 34.829283 14.388672 33.763672 L 18.332031 31.716797 A 1.0001 1.0001 0 0 0 17.859375 29.822266 A 1.0001 1.0001 0 0 0 17.408203 29.941406 L 14.460938 31.474609 C 14.999017 24.394525 18.118986 17.988577 23.083984 13.933594 L 25.597656 16.042969 A 1.0001723 1.0001723 0 0 0 26.884766 14.511719 L 24.742188 12.712891 C 25.888595 11.95581 27.114727 11.316633 28.414062 10.808594 L 29.056641 13.726562 A 1.0001263 1.0001263 0 1 0 31.009766 13.294922 L 30.320312 10.171875 C 32.002129 9.7072365 33.787253 9.4514193 35.664062 9.4433594 z M 47.886719 36.039062 C 47.514906 36.076891 47.183406 36.330688 47.066406 36.710938 C 46.910406 37.216938 47.195172 37.755156 47.701172 37.910156 C 48.208172 38.065156 48.745391 37.780391 48.900391 37.275391 C 49.056391 36.768391 48.771625 36.232172 48.265625 36.076172 C 48.139125 36.037172 48.010656 36.026453 47.886719 36.039062 z M 43.759766 41.294922 C 43.387953 41.332984 43.056453 41.58925 42.939453 41.96875 C 42.783453 42.47475 43.067219 43.012969 43.574219 43.167969 C 44.080219 43.322969 44.618437 43.038203 44.773438 42.533203 C 44.929437 42.026203 44.644672 41.488031 44.138672 41.332031 C 44.012172 41.293031 43.883703 41.282234 43.759766 41.294922 z M 49.921875 42.888672 C 49.550063 42.9265 49.218562 43.18225 49.101562 43.5625 C 48.945563 44.0685 49.229328 44.606719 49.736328 44.761719 C 50.242328 44.916719 50.780547 44.632953 50.935547 44.126953 C 51.091547 43.620953 50.806781 43.083734 50.300781 42.927734 C 50.174281 42.888734 50.045812 42.876063 49.921875 42.888672 z M 55.042969 51.5625 L 57.914062 55.628906 L 54.271484 58.109375 L 51.484375 54.507812 C 52.75811 53.638797 53.946246 52.6513 55.042969 51.5625 z M 60.458984 58.736328 L 82.675781 80.976562 C 80.865192 84.767667 78.039046 87.135086 74.154297 88.552734 L 73.472656 87.519531 L 75.935547 83.197266 A 1.0001 1.0001 0 0 0 75.076172 81.689453 A 1.0001 1.0001 0 0 0 74.197266 82.207031 L 72.236328 85.648438 L 70.65625 83.253906 L 72.810547 80.097656 A 1.0001 1.0001 0 0 0 71.976562 78.521484 A 1.0001 1.0001 0 0 0 71.158203 78.970703 L 69.464844 81.449219 L 67.732422 78.826172 L 69.078125 77.804688 A 1.0001 1.0001 0 0 0 68.488281 76 A 1.0001 1.0001 0 0 0 67.867188 76.212891 L 66.628906 77.154297 L 65.40625 75.300781 L 67.322266 72.882812 A 1.0001 1.0001 0 0 0 66.501953 71.25 A 1.0001 1.0001 0 0 0 65.755859 71.640625 L 64.246094 73.544922 L 63.152344 71.888672 L 64.291016 70.09375 A 1.0001 1.0001 0 0 0 63.404297 68.548828 A 1.0001 1.0001 0 0 0 62.601562 69.023438 L 61.945312 70.058594 L 56.326172 61.548828 L 60.458984 58.736328 z"/></svg>